<svg width="273" height="56" viewBox="0 0 273 56" fill="none" xmlns="http://www.w3.org/2000/svg">
<g clip-path="url(#clip0_1051_914)">
<path d="M0.000413239 1.09494L18.4702 0.819018V24.8518H66.1604V7.86256C66.1604 7.6841 65.6654 6.01804 65.5392 5.72303C64.2317 2.66551 60.0922 2.23616 57.2253 1.95167L57.0636 0.818359H75.2579V54.9607H66.1611V28.1654H18.4702V54.9607H9.09723V7.03414C9.09723 4.77476 5.56513 2.71095 3.59694 2.32506C2.36961 2.08404 1.06142 2.44886 -0.000244141 1.64744V1.09494H0.000413239ZM14.8868 4.13336L11.8503 4.27494L12.6918 8.40387L12.6793 51.647L14.8861 51.6457V4.13336H14.8868ZM71.95 4.13336L68.6433 4.13533C68.4599 4.2993 69.469 6.3934 69.469 6.75822V51.647H71.95V4.13336Z" fill="white"/>
<path d="M272.911 24.5768C273.03 25.7984 273.03 28.0512 272.911 29.2727C269.859 60.7178 211.497 64.6887 197.263 39.7478C188.295 24.0362 200.615 8.11774 215.504 2.82388C233.764 -3.66782 270.528 0.0310951 272.911 24.5768ZM229.85 2.55916C214.145 3.64835 204.385 13.9259 205.653 29.9589C208.087 60.7454 259.028 61.2861 261.62 32.1841C263.411 12.0801 248.841 1.24211 229.85 2.5585V2.55916ZM261.887 43.0846C272.415 33.6341 272.07 18.3452 260.036 10.2698C259.654 10.0143 259.353 9.59019 258.852 9.66263C265.063 17.3884 266.721 28.6122 263.887 38.0475C263.359 39.8078 262.55 41.3895 261.888 43.0846H261.887ZM205.648 12.701C205.155 12.5944 204.98 12.9638 204.677 13.2443C194.682 22.5051 195.888 37.7505 207.061 45.3979C207.326 45.5797 208.165 46.339 208.405 46.1197C201.361 36.6864 199.878 23.1195 205.649 12.7004L205.648 12.701Z" fill="white"/>
<path d="M176.151 54.9626H165.4L153.021 35.2518L120.098 35.1194L107.372 54.9626H102.547L134.141 5.53006C133.184 3.66315 130.262 2.53313 128.293 2.23087C126.955 2.02541 124.133 2.77678 124.601 0.820312H138.246C140.247 0.820312 143.976 3.8989 144.949 5.70522L176.15 54.9626H176.151ZM169.809 51.6463L141.921 7.35943C140.795 6.07729 139.665 4.59298 137.833 4.41452L167.303 51.4705L169.81 51.647L169.809 51.6463ZM150.514 31.4824L136.593 9.11241L122.121 31.4824H150.514Z" fill="white"/>
</g>
<defs>
<clipPath id="clip0_1051_914">
<rect width="273" height="56" fill="white"/>
</clipPath>
</defs>
</svg>
