<svg width="147" height="147" viewBox="0 0 147 147" fill="none" xmlns="http://www.w3.org/2000/svg">
<g clip-path="url(#clip0_1051_841)">
<path fill-rule="evenodd" clip-rule="evenodd" d="M88.6648 107.902H87.9077V110.566H88.6648C88.7651 110.566 88.8135 110.512 88.8135 110.407V108.063C88.8135 107.956 88.7634 107.904 88.6648 107.904V107.902Z" fill="white"/>
<path fill-rule="evenodd" clip-rule="evenodd" d="M77.937 54.4041H72.0476V77.3843H77.854C78.3398 77.3843 78.6492 77.291 78.784 77.1025C78.9189 76.9141 78.9863 76.6064 78.9863 76.176V55.5328C78.9863 54.7809 78.6371 54.4041 77.9387 54.4041H77.937Z" fill="white"/>
<path fill-rule="evenodd" clip-rule="evenodd" d="M99.1259 107.902H98.5191C98.4258 107.902 98.3809 107.952 98.3809 108.051V112.76C98.3809 112.817 98.3895 112.858 98.4068 112.882C98.4241 112.906 98.4656 112.919 98.5295 112.919H99.1155C99.1795 112.919 99.221 112.906 99.2365 112.882C99.2538 112.858 99.2642 112.817 99.2642 112.76V108.051C99.2642 107.95 99.2175 107.902 99.1259 107.902Z" fill="white"/>
<path fill-rule="evenodd" clip-rule="evenodd" d="M74.953 107.902H74.3463C74.2529 107.902 74.208 107.952 74.208 108.051V112.76C74.208 112.817 74.2166 112.858 74.2339 112.882C74.2512 112.906 74.2927 112.919 74.3567 112.919H74.9427C75.0066 112.919 75.0481 112.906 75.0637 112.882C75.081 112.858 75.0913 112.817 75.0913 112.76V108.051C75.0913 107.95 75.0447 107.902 74.953 107.902Z" fill="white"/>
<path fill-rule="evenodd" clip-rule="evenodd" d="M43.434 107.902H42.8273C42.7339 107.902 42.689 107.952 42.689 108.051V112.76C42.689 112.817 42.6976 112.858 42.7149 112.882C42.7322 112.906 42.7737 112.919 42.8376 112.919H43.4236C43.4876 112.919 43.5273 112.906 43.5446 112.882C43.5619 112.858 43.5723 112.817 43.5723 112.76V108.051C43.5723 107.95 43.5256 107.902 43.434 107.902Z" fill="white"/>
<path fill-rule="evenodd" clip-rule="evenodd" d="M57.1431 107.902H56.386V110.566H57.1431C57.2434 110.566 57.2918 110.512 57.2918 110.407V108.063C57.2918 107.956 57.2417 107.904 57.1431 107.904V107.902Z" fill="white"/>
<path fill-rule="evenodd" clip-rule="evenodd" d="M70.1927 107.902H69.4165V110.939H70.1823C70.2462 110.939 70.2877 110.927 70.3033 110.901C70.3206 110.877 70.3309 110.836 70.3309 110.779V108.052C70.3309 107.952 70.2843 107.904 70.1927 107.904V107.902Z" fill="white"/>
<path fill-rule="evenodd" clip-rule="evenodd" d="M108.829 107.902H108.072V110.566H108.829C108.929 110.566 108.978 110.512 108.978 110.407V108.063C108.978 107.956 108.927 107.904 108.829 107.904V107.902Z" fill="white"/>
<path fill-rule="evenodd" clip-rule="evenodd" d="M73.5009 15.4041C41.416 15.4041 15.4055 41.4146 15.4055 73.4995C15.4055 105.584 41.416 131.597 73.5009 131.597C105.586 131.597 131.596 105.586 131.596 73.4995C131.596 41.4128 105.588 15.4041 73.5009 15.4041ZM73.5078 24.7576C73.8864 24.7576 74.1786 24.7559 74.5139 24.7109L74.4378 23.7204L73.5078 23.5147V21.6997L78.4603 23.8898C79.5978 24.3929 76.8372 24.8285 75.9141 24.3099C75.6444 25.0826 74.8648 25.9279 73.5078 26.9236V24.7576ZM73.5078 36.3255L74.6937 35.9556C74.6522 35.4266 73.9694 34.9184 73.5182 34.9184L73.513 34.7525C75.6997 34.7525 75.9867 35.4318 78.2097 35.5615C77.1742 36.7888 75.5148 37.5995 73.5009 38.1717L73.5078 36.3255ZM63.4507 30.386C63.7221 30.386 63.9538 30.5588 64.0367 30.8009C65.252 30.3047 66.7005 29.8294 67.3713 29.883C68.1785 29.9452 67.9953 30.832 68.4101 32.5226C69.0981 29.15 68.7213 26.6867 67.1292 25.2624C67.0186 25.437 66.8233 25.5545 66.602 25.5545C66.258 25.5545 65.9814 25.2762 65.9814 24.9339C65.9814 24.5917 66.258 24.3134 66.602 24.3134C66.946 24.3134 67.2226 24.5917 67.2226 24.9339C67.2226 24.965 67.2209 24.9944 67.2157 25.0238C69.8242 25.0601 71.9071 26.424 73.4923 29.0187V33.7879C71.4007 33.8 69.8121 34.2788 68.4101 34.7006C67.5735 32.3445 66.1249 31.0567 64.0713 30.9668C64.073 30.9806 64.073 30.9927 64.073 31.0066C64.073 31.3488 63.7947 31.6271 63.4507 31.6271C63.1067 31.6271 62.8302 31.3488 62.8302 31.0066C62.8302 30.6643 63.1085 30.386 63.4507 30.386ZM40.2803 113.166C40.2803 113.47 40.1922 113.731 40.0141 113.949C39.8378 114.165 39.5785 114.272 39.238 114.272H37.4039C37.0997 114.272 36.8525 114.184 36.6641 114.008C36.4757 113.828 36.3823 113.588 36.3823 113.282V109.819H37.8845V112.737C37.8845 112.838 37.9294 112.888 38.021 112.888H38.588C38.6796 112.888 38.7246 112.834 38.7246 112.729V107.987H37.053L37.3192 106.549H40.2803V113.166ZM45.1378 113.175C45.1378 113.325 45.1205 113.467 45.0859 113.598C45.0496 113.728 44.9891 113.842 44.9027 113.942C44.818 114.041 44.7056 114.122 44.5621 114.182C44.4204 114.243 44.2423 114.272 44.0297 114.272H42.2406C42.028 114.272 41.8499 114.243 41.7082 114.182C41.5664 114.122 41.4523 114.041 41.3676 113.942C41.2812 113.842 41.2207 113.728 41.1861 113.598C41.1498 113.467 41.1325 113.325 41.1325 113.175V107.55C41.1325 107.246 41.2155 107.002 41.3832 106.822C41.5491 106.641 41.8136 106.549 42.1766 106.549H44.0937C44.4567 106.549 44.7212 106.641 44.8871 106.822C45.0548 107.002 45.1378 107.246 45.1378 107.55V113.175ZM50.1784 114.272H48.4826L47.8759 111.088H47.5682V114.272H45.99V106.549H47.5682V109.863H47.7998L48.5898 106.549H50.1888L49.2605 110.108L50.1784 114.272ZM36.4082 102.623C34.0953 102.623 32.2267 101.953 30.8006 100.608C29.3779 99.2628 28.6658 97.4356 28.6658 95.1245V68.9152H40.0383V91.0121C40.0383 91.764 40.3875 92.1392 41.0859 92.1392H45.359C46.0591 92.1392 46.4083 91.7381 46.4083 90.9309V55.0465H33.7479L35.7617 44.1631H58.1802V94.236C58.1802 96.5506 57.5078 98.5247 56.1646 100.165C54.8198 101.804 52.856 102.623 50.2769 102.623H36.4082ZM53.691 109.819V111.152H52.4135V112.834H54.0332L53.767 114.272H50.8266V106.549H53.831L54.0972 107.987H52.4135V109.819H53.691ZM57.3349 114.272L56.5899 111.813H56.3876V114.272H54.8422V106.549H57.7722C58.1335 106.549 58.398 106.641 58.5657 106.822C58.7316 107.002 58.8163 107.246 58.8163 107.55V111.13C58.8163 111.301 58.7558 111.458 58.6383 111.6C58.5225 111.742 58.3513 111.813 58.1249 111.813L58.9339 114.272H57.3349ZM60.4879 109.372H59.5285L60.0298 106.336H61.3194L60.4879 109.372ZM65.4836 113.102C65.4836 113.527 65.3972 113.828 65.2226 114.008C65.0497 114.184 64.742 114.272 64.303 114.272H62.3946L62.118 112.834H63.7809C63.9002 112.834 63.9607 112.781 63.9607 112.675V111.268C63.9607 111.163 63.9399 111.099 63.8985 111.078C63.8552 111.057 63.7809 111.045 63.6737 111.045H62.8751C62.761 111.045 62.6521 111.036 62.5501 111.019C62.4464 111.002 62.3548 110.96 62.2718 110.896C62.1906 110.832 62.1266 110.744 62.0799 110.63C62.0333 110.516 62.0108 110.362 62.0108 110.17V107.55C62.0108 107.246 62.0938 107.002 62.2615 106.822C62.4291 106.641 62.6936 106.549 63.0549 106.549H65.188L65.4525 107.987H63.7048C63.5769 107.987 63.513 108.044 63.513 108.158V109.564C63.513 109.643 63.532 109.697 63.5717 109.724C63.6115 109.752 63.6703 109.766 63.7481 109.766H64.7178C64.9667 109.766 65.1569 109.825 65.2865 109.942C65.4179 110.06 65.4836 110.264 65.4836 110.556V113.102ZM71.8345 111.185C71.8345 111.334 71.8173 111.47 71.7861 111.595C71.7533 111.717 71.6945 111.826 71.6098 111.918C71.5234 112.011 71.411 112.084 71.2693 112.138C71.1275 112.191 70.9495 112.217 70.7369 112.217H69.4162V114.272H67.8812V106.549H70.9184C71.2226 106.549 71.4525 106.634 71.6046 106.805C71.7568 106.976 71.8345 107.202 71.8345 107.488V111.185ZM76.6591 113.175C76.6591 113.325 76.6418 113.467 76.6055 113.598C76.571 113.728 76.5105 113.842 76.424 113.942C76.3393 114.041 76.2252 114.122 76.0835 114.182C75.9417 114.243 75.7637 114.272 75.5511 114.272H73.7602C73.5476 114.272 73.3713 114.243 73.2295 114.182C73.0878 114.122 72.9737 114.041 72.8873 113.942C72.8026 113.842 72.7421 113.728 72.7058 113.598C72.6712 113.467 72.6522 113.325 72.6522 113.175V107.55C72.6522 107.246 72.7369 107.002 72.9028 106.822C73.0705 106.641 73.335 106.549 73.698 106.549H75.615C75.9763 106.549 76.2408 106.641 76.4085 106.822C76.5761 107.002 76.6591 107.246 76.6591 107.55V113.175ZM81.698 114.272H80.004L79.3973 111.088H79.0878V114.272H77.5113V106.549H79.0878V109.863H79.3212L80.1112 106.549H81.7084L80.7819 110.108L81.698 114.272ZM85.2123 109.819V111.152H83.9349V112.834H85.5546L85.2884 114.272H82.3463V106.549H85.3523L85.6168 107.987H83.9349V109.819H85.2123ZM82.0472 87.0622H72.0472V102.623H60.4395V44.1631H83.4197C85.7292 44.1631 87.463 44.8079 88.6194 46.0991C89.7759 47.3869 90.3532 49.1069 90.3532 51.2573V79.2385C90.3532 80.3673 90.2322 81.4027 89.992 82.3431C89.7499 83.2834 89.3057 84.1028 88.6609 84.8012C88.0144 85.4995 87.1553 86.051 86.0801 86.4555C85.0049 86.86 83.66 87.0622 82.0472 87.0622ZM88.8563 114.272L88.1112 111.813H87.9072V114.272H86.3636V106.549H89.2936C89.6549 106.549 89.9194 106.641 90.0853 106.822C90.253 107.002 90.336 107.246 90.336 107.55V111.13C90.336 111.301 90.2772 111.458 90.1596 111.6C90.0438 111.742 89.871 111.813 89.6445 111.813L90.4552 114.272H88.8563ZM95.1519 107.987V114.272H93.5754V107.987H92.5417L92.9462 106.549H95.8018L96.1856 107.987H95.1519ZM100.83 113.175C100.83 113.325 100.811 113.467 100.777 113.598C100.741 113.728 100.68 113.842 100.595 113.942C100.511 114.041 100.397 114.122 100.253 114.182C100.111 114.243 99.935 114.272 99.7224 114.272H97.9315C97.7189 114.272 97.5408 114.243 97.4008 114.182C97.2573 114.122 97.145 114.041 97.0585 113.942C96.9721 113.842 96.9116 113.728 96.877 113.598C96.8407 113.467 96.8235 113.325 96.8235 113.175V107.55C96.8235 107.246 96.9064 107.002 97.0741 106.822C97.2401 106.641 97.5063 106.549 97.8675 106.549H99.7846C100.148 106.549 100.412 106.641 100.58 106.822C100.746 107.002 100.83 107.246 100.83 107.55V113.175ZM105.677 113.08C105.677 113.507 105.588 113.813 105.41 113.998C105.231 114.181 104.92 114.272 104.473 114.272H102.886C102.438 114.272 102.125 114.181 101.947 113.998C101.769 113.813 101.681 113.507 101.681 113.08V106.549H103.259V112.749C103.259 112.807 103.268 112.848 103.285 112.877C103.302 112.905 103.344 112.921 103.408 112.921H103.952C104.015 112.921 104.054 112.905 104.072 112.877C104.091 112.848 104.099 112.807 104.099 112.749V106.549H105.677V113.08ZM109.022 114.272L108.276 111.813H108.073V114.272H106.528V106.549H109.46C109.821 106.549 110.084 106.641 110.251 106.822C110.419 107.002 110.502 107.246 110.502 107.55V111.13C110.502 111.301 110.443 111.458 110.326 111.6C110.208 111.742 110.037 111.813 109.811 111.813L110.62 114.272H109.022ZM110.514 55.0465V102.623H98.578V55.0465H90.7577L93.8208 44.1631H115.432L118.336 55.0465H110.514Z" fill="white"/>
<path fill-rule="evenodd" clip-rule="evenodd" d="M73.5004 -0.000488281C32.9072 -0.000488281 -0.000488281 32.9072 -0.000488281 73.5004C-0.000488281 114.094 32.9072 147.001 73.5004 147.001C114.094 147.001 147.001 114.094 147.001 73.5004C147.001 32.9072 114.094 -0.000488281 73.5004 -0.000488281ZM73.5004 138.469C37.6194 138.469 8.53024 109.381 8.53024 73.4986C8.53024 37.616 37.6177 8.53024 73.5004 8.53024C109.383 8.53024 138.47 37.6177 138.47 73.5004C138.47 109.383 109.383 138.47 73.5004 138.47V138.469Z" fill="white"/>
<path fill-rule="evenodd" clip-rule="evenodd" d="M64.0352 30.8003C64.056 30.8522 64.0663 30.9092 64.0698 30.9662C63.9298 30.9593 63.788 30.9593 63.6428 30.9645C63.769 30.9092 63.9004 30.8556 64.0352 30.8003Z" fill="black"/>
<path fill-rule="evenodd" clip-rule="evenodd" d="M67.2147 25.0239C67.2026 25.1103 67.1715 25.1915 67.1283 25.2624C67.0366 25.1812 66.9416 25.1017 66.8413 25.0273C66.9675 25.0239 67.092 25.0221 67.2147 25.0239Z" fill="black"/>
<path opacity="0.15" fill-rule="evenodd" clip-rule="evenodd" d="M73.4869 34.7527L73.4835 34.9186C73.0323 34.9186 72.3495 35.4268 72.3063 35.9558L73.4921 36.324L73.499 38.1719C71.4852 37.5997 69.8275 36.789 68.7903 35.56C71.0133 35.4303 71.3002 34.7527 73.4852 34.7527H73.4869Z" fill="black"/>
<path opacity="0.15" fill-rule="evenodd" clip-rule="evenodd" d="M73.4925 21.7009V23.516L72.5608 23.7217L72.4847 24.7105C72.82 24.7571 73.1122 24.7571 73.4925 24.7571V26.9231C72.1338 25.9274 71.3542 25.0821 71.0862 24.3094C70.1632 24.828 67.4026 24.3924 68.5383 23.8894L73.4925 21.6992V21.7009Z" fill="black"/>
<path opacity="0.15" fill-rule="evenodd" clip-rule="evenodd" d="M73.5073 29.0178V33.7871C75.599 33.7992 77.1876 34.2797 78.5895 34.6998C79.4832 32.1812 81.0752 30.8865 83.3553 30.9643C82.0778 30.4146 80.3734 29.8234 79.6284 29.8821C78.8228 29.9444 79.0043 30.8312 78.5895 32.5217C77.8617 28.9556 78.325 26.4059 80.159 25.0265C77.3725 24.9331 75.1703 26.3004 73.5091 29.0178H73.5073Z" fill="black"/>
<path opacity="0.15" d="M83.5471 31.6274C83.8898 31.6274 84.1677 31.3495 84.1677 31.0068C84.1677 30.6641 83.8898 30.3862 83.5471 30.3862C83.2044 30.3862 82.9265 30.6641 82.9265 31.0068C82.9265 31.3495 83.2044 31.6274 83.5471 31.6274Z" fill="black"/>
<path opacity="0.15" d="M80.4004 25.5539C80.7431 25.5539 81.0209 25.2761 81.0209 24.9333C81.0209 24.5906 80.7431 24.3127 80.4004 24.3127C80.0576 24.3127 79.7798 24.5906 79.7798 24.9333C79.7798 25.2761 80.0576 25.5539 80.4004 25.5539Z" fill="black"/>
</g>
<defs>
<clipPath id="clip0_1051_841">
<rect width="147" height="147" fill="white"/>
</clipPath>
</defs>
</svg>
