<svg width="151" height="58" viewBox="0 0 151 58" fill="none" xmlns="http://www.w3.org/2000/svg">
<path d="M142.113 14.9818C146.657 14.9818 150.301 17.7854 150.301 22.1262C150.301 26.467 146.658 29.2706 142.113 29.2706H138.121V14.9832H142.113V14.9818ZM142.113 28.8806C145.921 28.8806 148.52 25.7494 148.52 22.1262C148.52 18.503 145.921 15.3718 142.113 15.3718H139.8V28.882H142.113V28.8806Z" fill="white"/>
<path d="M134.873 29.2692L123.246 16.4963V24.8277C123.246 26.3635 123.389 27.7135 124.782 29.2692H122.797V15.9844L121.876 14.9818H124.189L134.424 26.138V19.4247C134.424 17.8889 134.28 16.5389 132.888 14.9832H134.873V29.2706V29.2692Z" fill="white"/>
<path d="M111.932 14.7365C116.497 14.7365 120.14 17.7868 120.14 22.1262C120.14 26.4656 116.497 29.5357 111.932 29.5357C107.367 29.5357 103.724 26.4656 103.724 22.1262C103.724 17.7868 107.367 14.7365 111.932 14.7365ZM111.932 29.1458C115.76 29.1458 118.278 25.748 118.278 22.1247C118.278 18.5015 115.761 15.1037 111.932 15.1037C108.103 15.1037 105.586 18.5015 105.586 22.1247C105.586 25.748 108.103 29.1458 111.932 29.1458Z" fill="white"/>
<path d="M98.9985 14.737L102.581 29.2697H100.717L97.9945 18.0936L93.061 29.2697L87.6977 18.1957L86.1421 24.8282C85.7946 26.364 85.528 27.714 86.4895 29.2697H84.5042L87.3701 17.5207L88.0664 14.5938L93.8395 26.425L98.9971 14.737H98.9985Z" fill="white"/>
<path d="M77.0713 14.9818L83.6626 29.2692H81.7383L79.6296 24.6022H73.2424L73.1403 24.8277C72.4653 26.3422 72.3008 27.7135 73.1191 29.2692H70.8062L76.1893 17.0083L75.2675 14.9818H77.0685H77.0713ZM73.4268 24.2136H79.4452L76.4162 17.5004L73.4282 24.2136H73.4268Z" fill="white"/>
<path d="M68.8797 29.2692H67.2007V14.9818H68.8797V29.2692Z" fill="white"/>
<path d="M56.4795 14.9818C61.0231 14.9818 64.6676 17.7854 64.6676 22.1262C64.6676 26.467 61.0245 29.2706 56.4795 29.2706H52.4875V14.9832H56.4795V14.9818ZM56.4795 28.8806C60.2871 28.8806 62.8865 25.7494 62.8865 22.1262C62.8865 18.503 60.2871 15.3718 56.4795 15.3718H54.1666V28.882H56.4795V28.8806Z" fill="white"/>
<path d="M134.675 38.3531V34.1215C134.675 34.0846 134.706 34.0591 134.737 34.0591H136.399C137.295 34.0591 137.668 34.7369 137.668 35.3963C137.668 36.1366 137.389 36.4798 136.978 36.6343L137.837 38.3517C137.85 38.3829 137.806 38.4141 137.775 38.4141H137.047C137.01 38.4141 136.99 38.3829 136.972 38.3517L136.219 36.7393H135.591C135.497 36.7393 135.455 36.7833 135.455 36.8768V38.3517C135.455 38.3885 135.429 38.4141 135.392 38.4141H134.738C134.707 38.4141 134.676 38.3885 134.676 38.3517L134.675 38.3531ZM135.589 36.138H136.155C136.59 36.138 136.895 35.9763 136.895 35.4346C136.895 34.8929 136.59 34.744 136.155 34.7383H135.589C135.496 34.7383 135.453 34.788 135.453 34.8759V36.0019C135.453 36.0955 135.497 36.138 135.589 36.138Z" fill="white"/>
<path d="M133.218 38.3723L132.877 37.2023C132.858 37.1399 132.814 37.1031 132.746 37.1031H131.576C131.508 37.1031 131.464 37.1399 131.446 37.2023L131.104 38.3723C131.091 38.3964 131.067 38.4162 131.036 38.4162H130.364C130.32 38.4162 130.289 38.3794 130.301 38.3354L131.62 34.0471C131.626 34.0159 131.651 33.9974 131.677 33.9974H132.648C132.673 33.9974 132.698 34.0159 132.705 34.0471L134.024 38.3354C134.037 38.3794 134.006 38.4162 133.962 38.4162H133.289C133.258 38.4162 133.233 38.3978 133.221 38.3723H133.218ZM132.023 35.2369L131.681 36.4011C131.663 36.4635 131.687 36.5004 131.756 36.5004H132.566C132.634 36.5004 132.66 36.4635 132.641 36.4011L132.3 35.2369C132.256 35.0752 132.206 34.9944 132.163 34.9944C132.121 34.9944 132.076 35.0752 132.026 35.2369H132.023Z" fill="white"/>
<path d="M126.671 38.3544V34.1228C126.671 34.0859 126.702 34.0604 126.733 34.0604H128.27C129.198 34.0604 129.596 34.5837 129.596 35.2559C129.596 35.5111 129.521 35.7409 129.372 35.9281C129.297 36.0217 129.304 36.0897 129.403 36.1649C129.714 36.4074 129.864 36.7562 129.864 37.1292C129.864 37.7886 129.403 38.4168 128.514 38.4168H126.734C126.703 38.4168 126.672 38.3913 126.672 38.3544H126.671ZM127.585 35.816H128.151C128.594 35.816 128.818 35.5423 128.818 35.2686C128.818 34.9949 128.581 34.7213 128.151 34.7142H127.585C127.492 34.7142 127.448 34.7581 127.448 34.8517V35.6799C127.448 35.7735 127.492 35.8174 127.585 35.8174V35.816ZM127.585 37.7446H128.388C128.867 37.7446 129.104 37.4142 129.104 37.0852C129.104 36.7562 128.867 36.4187 128.388 36.4187H127.585C127.492 36.4187 127.448 36.4627 127.448 36.5563V37.6085C127.448 37.7021 127.492 37.7461 127.585 37.7461V37.7446Z" fill="white"/>
<path d="M123.204 34.0591H125.917C125.954 34.0591 125.98 34.0832 125.98 34.1215V34.676C125.98 34.7128 125.956 34.7383 125.917 34.7383H125.083C124.99 34.7383 124.946 34.788 124.946 34.8759V38.3545C124.946 38.3914 124.915 38.4169 124.883 38.4169H124.23C124.198 38.4169 124.167 38.3914 124.167 38.3545V34.8759C124.167 34.788 124.123 34.7383 124.03 34.7383H123.202C123.165 34.7383 123.139 34.7128 123.139 34.676V34.1215C123.139 34.0846 123.165 34.0591 123.202 34.0591H123.204Z" fill="white"/>
<path d="M119.554 38.3531V34.1215C119.554 34.0846 119.585 34.0591 119.617 34.0591H121.279C122.175 34.0591 122.548 34.7369 122.548 35.3963C122.548 36.1366 122.267 36.4798 121.857 36.6343L122.717 38.3517C122.729 38.3829 122.685 38.4141 122.654 38.4141H121.925C121.888 38.4141 121.87 38.3829 121.85 38.3517L121.097 36.7393H120.469C120.375 36.7393 120.331 36.7833 120.331 36.8768V38.3517C120.331 38.3885 120.306 38.4141 120.269 38.4141H119.615C119.584 38.4141 119.553 38.3885 119.553 38.3517L119.554 38.3531ZM120.469 36.138H121.035C121.47 36.138 121.775 35.9763 121.775 35.4346C121.775 34.8929 121.47 34.744 121.035 34.7383H120.469C120.375 34.7383 120.331 34.788 120.331 34.8759V36.0019C120.331 36.0955 120.375 36.138 120.469 36.138Z" fill="white"/>
<path d="M115.167 36.6181V35.8835C115.167 34.5264 116.001 33.9237 117.059 33.9237C118.117 33.9237 118.951 34.5278 118.951 35.8835V36.6181C118.951 37.9809 118.123 38.585 117.059 38.585C115.996 38.585 115.167 37.9809 115.167 36.6181ZM117.059 37.832C117.544 37.832 118.117 37.5824 118.117 36.7613V35.7474C118.117 34.9192 117.544 34.6767 117.059 34.6767C116.574 34.6767 116.001 34.9192 116.001 35.7474V36.7613C116.001 37.5824 116.58 37.832 117.059 37.832Z" fill="white"/>
<path d="M111.672 38.3531V34.1215C111.672 34.0846 111.703 34.0591 111.734 34.0591H113.235C114.206 34.0591 114.691 34.7866 114.691 35.5084C114.691 36.2302 114.206 36.9648 113.235 36.9648H112.588C112.494 36.9648 112.45 37.0087 112.45 37.0952V38.3517C112.45 38.3885 112.425 38.4141 112.388 38.4141H111.734C111.703 38.4141 111.672 38.3885 111.672 38.3517V38.3531ZM112.587 36.2869H113.072C113.619 36.2869 113.893 35.9012 113.893 35.5084C113.893 35.1156 113.606 34.7497 113.072 34.7369H112.587C112.493 34.7369 112.449 34.7866 112.449 34.8745V36.1508C112.449 36.2373 112.493 36.2883 112.587 36.2883V36.2869Z" fill="white"/>
<path d="M110.107 37.3035C110.107 36.9418 109.665 36.7433 109.193 36.5249C108.577 36.2456 107.898 35.9407 107.898 35.199C107.898 34.3964 108.552 33.9851 109.391 33.9851C110.231 33.9851 110.842 34.5637 110.842 35.4543C110.842 35.4855 110.811 35.5167 110.779 35.5167H110.139C110.102 35.5167 110.076 35.4855 110.076 35.4543C110.076 34.8998 109.672 34.6885 109.373 34.6885C108.969 34.6885 108.664 34.8757 108.664 35.2231C108.664 35.5096 109.075 35.6968 109.529 35.908C110.157 36.1945 110.873 36.5178 110.873 37.234C110.873 38.2479 110.034 38.5032 109.323 38.5032C108.445 38.5032 107.786 38.0366 107.786 36.9404C107.786 36.9092 107.811 36.878 107.848 36.878H108.484C108.52 36.878 108.546 36.9092 108.546 36.9404C108.546 37.5006 108.827 37.7998 109.354 37.7998C109.914 37.7998 110.107 37.5133 110.107 37.302V37.3035Z" fill="white"/>
<path d="M104.232 36.2324C104.238 36.2012 104.258 36.17 104.294 36.17H104.948C104.979 36.17 105.016 36.2012 105.011 36.2324L104.73 37.1783L105.931 38.3539C105.956 38.3794 105.944 38.4163 105.907 38.4163H105.104C105.042 38.4163 105.018 38.3794 104.992 38.3539L104.476 37.8505C104.215 38.2858 103.809 38.517 103.312 38.517C102.54 38.517 101.73 38.0192 101.73 37.0918C101.73 36.6437 101.942 36.1899 102.408 35.8779C102.241 35.6666 102.129 35.4298 102.129 35.1306C102.129 34.3407 102.764 33.9734 103.411 33.9734C104.058 33.9734 104.674 34.3719 104.674 35.3929C104.674 35.4241 104.649 35.4553 104.612 35.4553H103.971C103.94 35.4553 103.909 35.4241 103.909 35.3929C103.909 34.8583 103.679 34.6895 103.398 34.6895C103.143 34.6895 102.895 34.82 102.895 35.1561C102.895 35.4425 103.286 35.7403 103.642 36.102L104.127 36.5813L104.233 36.2324H104.232ZM103.914 37.3031L103.299 36.7061C103.174 36.5813 103.038 36.4692 102.906 36.3572C102.632 36.5628 102.515 36.8309 102.515 37.0734C102.515 37.5654 102.932 37.8079 103.305 37.8079C103.604 37.8079 103.815 37.6278 103.902 37.3598V37.3541L103.914 37.3229V37.3045V37.3031Z" fill="white"/>
<path d="M96.5574 38.3544V34.1228C96.5574 34.0859 96.5886 34.0604 96.6198 34.0604H98.157C99.0844 34.0604 99.4829 34.5837 99.4829 35.2559C99.4829 35.5111 99.4078 35.7409 99.2588 35.9281C99.1837 36.0217 99.1908 36.0897 99.29 36.1649C99.6006 36.4074 99.7509 36.7562 99.7509 37.1292C99.7509 37.7886 99.29 38.4168 98.4009 38.4168H96.6212C96.59 38.4168 96.5588 38.3913 96.5588 38.3544H96.5574ZM97.472 35.816H98.0379C98.4803 35.816 98.7044 35.5423 98.7044 35.2686C98.7044 34.9949 98.4675 34.7213 98.0379 34.7142H97.472C97.3784 34.7142 97.3345 34.7581 97.3345 34.8517V35.6799C97.3345 35.7735 97.3784 35.8174 97.472 35.8174V35.816ZM97.472 37.7446H98.2747C98.754 37.7446 98.9908 37.4142 98.9908 37.0852C98.9908 36.7562 98.754 36.4187 98.2747 36.4187H97.472C97.3784 36.4187 97.3345 36.4627 97.3345 36.5563V37.6085C97.3345 37.7021 97.3784 37.7461 97.472 37.7461V37.7446Z" fill="white"/>
<path d="M94.9981 34.0604H95.6518C95.683 34.0604 95.7142 34.0845 95.7142 34.1228V36.7931C95.7142 38.1119 95.0421 38.5856 94.0962 38.5856C93.1503 38.5856 92.5037 38.1119 92.5037 36.7931V34.1228C92.5037 34.0859 92.5292 34.0604 92.5661 34.0604H93.2198C93.2567 34.0604 93.2822 34.0916 93.2822 34.1228V36.7931C93.2822 37.695 93.7303 37.8198 94.0976 37.8198C94.4649 37.8198 94.9371 37.695 94.9371 36.7931V34.1228C94.9371 34.0859 94.9626 34.0604 94.9995 34.0604H94.9981Z" fill="white"/>
<path d="M90.2836 37.7134H91.7272C91.7584 37.7134 91.7896 37.739 91.7896 37.7758V38.3544C91.7896 38.3913 91.7584 38.4168 91.7272 38.4168H89.4313C89.4001 38.4168 89.3689 38.3913 89.3689 38.3544V34.1228C89.3689 34.0859 89.4001 34.0604 89.4313 34.0604H90.085C90.1162 34.0604 90.1474 34.0845 90.1474 34.1228V37.5773C90.1474 37.6709 90.1914 37.7149 90.285 37.7149L90.2836 37.7134Z" fill="white"/>
<path d="M87.8627 36.9232H88.5164C88.5476 36.9232 88.5788 36.9544 88.5788 36.9856C88.5788 38.0378 87.9123 38.5852 86.9111 38.5852C85.91 38.5852 85.1187 38.0067 85.1187 36.6183V35.8838C85.1187 34.5025 85.8589 33.9424 86.9111 33.9424C87.9634 33.9424 88.5788 34.477 88.5788 35.5292C88.5788 35.5661 88.5476 35.5916 88.5164 35.5916H87.8627C87.8315 35.5916 87.8003 35.5675 87.8003 35.5292C87.8003 35.2867 87.745 34.6954 86.904 34.6954C86.5807 34.6954 85.9085 34.8131 85.9085 35.7476V36.7616C85.9085 37.689 86.5807 37.8067 86.9111 37.8067C87.7946 37.8067 87.8003 37.1785 87.8003 36.9856C87.8003 36.9544 87.8315 36.9232 87.8627 36.9232Z" fill="white"/>
<path d="M79.8572 38.3544V34.1228C79.8572 34.0859 79.8884 34.0604 79.9196 34.0604H81.5816C82.4778 34.0604 82.8508 34.7383 82.8508 35.3977C82.8508 36.1379 82.5714 36.4811 82.1602 36.6357L83.0195 38.353C83.0323 38.3842 82.9883 38.4154 82.9571 38.4154H82.2297C82.1928 38.4154 82.1729 38.3842 82.1545 38.353L81.4015 36.7406H80.7733C80.6797 36.7406 80.6371 36.7846 80.6371 36.8782V38.353C80.6371 38.3899 80.6116 38.4154 80.5747 38.4154H79.921C79.8898 38.4154 79.8586 38.3899 79.8586 38.353L79.8572 38.3544ZM80.7719 36.1394H81.3377C81.773 36.1394 82.0779 35.9777 82.0779 35.436C82.0779 34.8943 81.773 34.7454 81.3377 34.7397H80.7719C80.6783 34.7397 80.6357 34.7893 80.6357 34.8772V36.0032C80.6357 36.0968 80.6797 36.1394 80.7719 36.1394Z" fill="white"/>
<path d="M77.2057 37.738H78.9854C79.0166 37.738 79.0478 37.7636 79.0478 37.8004V38.3549C79.0478 38.3918 79.0166 38.4173 78.9854 38.4173H76.3534C76.3222 38.4173 76.291 38.3918 76.291 38.3549V34.1233C76.291 34.0864 76.3222 34.0609 76.3534 34.0609H78.9485C78.9797 34.0609 79.0109 34.085 79.0109 34.1233V34.6778C79.0109 34.7147 78.9797 34.7402 78.9485 34.7402H77.2057C77.1121 34.7402 77.0681 34.7841 77.0681 34.8777V35.7867C77.0681 35.8803 77.1121 35.9229 77.2057 35.9229H78.8606C78.8975 35.9229 78.923 35.9541 78.923 35.9853V36.4703C78.923 36.5015 78.8975 36.5327 78.8606 36.5327H77.2057C77.1121 36.5327 77.0681 36.5766 77.0681 36.6702V37.6033C77.0681 37.6969 77.1121 37.7409 77.2057 37.7409V37.738Z" fill="white"/>
<path d="M73.1291 34.1215V35.5779C73.1291 35.6459 73.1476 35.653 73.1915 35.5963L74.343 34.1215C74.3615 34.0959 74.387 34.0591 74.455 34.0591H75.252C75.2889 34.0591 75.296 34.0959 75.2705 34.1215L73.8396 35.9508C73.7956 36.0075 73.7956 36.0572 73.8396 36.1125L75.6193 38.3531C75.6377 38.3786 75.6321 38.4155 75.5938 38.4155H74.7968C74.7287 38.4155 74.7032 38.3786 74.6791 38.3531L73.1915 36.467C73.1476 36.4174 73.1291 36.4231 73.1291 36.4925V38.3531C73.1291 38.39 73.1036 38.4155 73.0667 38.4155H72.413C72.3818 38.4155 72.3506 38.39 72.3506 38.3531V34.1215C72.3506 34.0846 72.3818 34.0591 72.413 34.0591H73.0667C73.1036 34.0591 73.1291 34.0832 73.1291 34.1215Z" fill="white"/>
<path d="M67.8738 36.6181V35.8835C67.8738 34.5264 68.7076 33.9237 69.7655 33.9237C70.8234 33.9237 71.6573 34.5278 71.6573 35.8835V36.6181C71.6573 37.9809 70.8291 38.585 69.7655 38.585C68.7019 38.585 67.8738 37.9809 67.8738 36.6181ZM69.7655 37.832C70.2505 37.832 70.8234 37.5824 70.8234 36.7613V35.7474C70.8234 34.9192 70.2505 34.6767 69.7655 34.6767C69.2805 34.6767 68.7076 34.9192 68.7076 35.7474V36.7613C68.7076 37.5824 69.2862 37.832 69.7655 37.832Z" fill="white"/>
<path d="M64.3777 38.3544V34.1228C64.3777 34.0859 64.4089 34.0604 64.4401 34.0604H65.9404C66.9118 34.0604 67.3968 34.7879 67.3968 35.5097C67.3968 36.2315 66.9118 36.9661 65.9404 36.9661H65.2938C65.2002 36.9661 65.1576 37.0101 65.1576 37.0966V38.353C65.1576 38.3899 65.1321 38.4154 65.0952 38.4154H64.4415C64.4103 38.4154 64.3791 38.3899 64.3791 38.353L64.3777 38.3544ZM65.2924 36.2883H65.7773C66.3247 36.2883 66.5984 35.9025 66.5984 35.5097C66.5984 35.1169 66.312 34.751 65.7773 34.7383H65.2924C65.1988 34.7383 65.1562 34.7879 65.1562 34.8758V36.1521C65.1562 36.2386 65.2002 36.2897 65.2924 36.2897V36.2883Z" fill="white"/>
<path d="M19.0979 0L38.1955 29.0356H0.000403238L19.0979 0Z" fill="white"/>
<path d="M19.0975 58.0001L0 28.9645H38.1937L19.0961 58.0001H19.0975Z" fill="white"/>
<path d="M60.7972 36.2784L56.6082 39.0337V33.5244L60.7972 36.2798V36.2784Z" fill="white"/>
<path d="M52.4309 36.2783L56.62 33.5229V39.0323L52.4309 36.2769V36.2783Z" fill="white"/>
<path d="M150.279 36.2785L146.09 39.0339V33.5245L150.279 36.2799V36.2785Z" fill="white"/>
<path d="M141.913 36.2783L146.102 33.5229V39.0323L141.913 36.2769V36.2783Z" fill="white"/>
</svg>
