<svg width="192" height="48" viewBox="0 0 192 48" fill="none" xmlns="http://www.w3.org/2000/svg">
<path d="M32.7714 10.091L33.2171 9.93601C39.1885 -2.59451 55.9109 -3.39217 63.4454 8.31159C63.8264 8.9026 64.2334 10.653 64.7533 9.80363C65.0246 9.36119 65.1958 8.78956 65.5058 8.31159C72.643 -2.72689 87.8185 -2.81409 94.9267 8.31159C95.2335 8.79279 95.4046 9.36119 95.6792 9.80363C95.7664 9.9425 95.6662 10.2299 96.0667 10.0943C96.2443 10.0329 97.6104 7.42022 98.0173 6.86797C104.444 -1.81943 117.514 -2.27156 124.629 5.81515L127.658 10.3171C128.924 6.61932 132.57 3.18309 136.126 1.57802C143.34 -1.67733 151.469 0.328207 156.559 6.26729L159.139 10.3171C164.158 -1.42218 179.763 -3.56659 188.04 6.26729C194.945 14.4735 192.497 27.0718 183.209 32.2552C174.337 37.2028 163.163 33.4404 159.033 24.2621C153.061 37.6872 133.445 37.8326 127.661 24.2621C127.5 24.1426 125.798 27.2236 125.51 27.6176C117.892 37.9973 101.072 36.1823 96.183 24.2621C95.986 24.1136 94.6909 26.6326 94.4778 26.9394C87.9961 36.2695 74.5775 37.051 67.1722 28.4282L64.369 24.485C59.2857 35.3717 44.4881 37.9553 36.1527 29.0935C34.7963 27.6532 33.9696 25.8155 32.7779 24.2621C28.77 34.025 16.359 37.4063 7.61672 31.5479C-0.353723 26.2063 -2.44322 15.2001 3.13739 7.32011C10.8139 -3.52137 27.433 -1.95507 32.7811 10.091H32.7714ZM15.8585 2.96027C4.58744 4.00986 -1.16111 17.4737 6.11822 26.2903C12.1413 33.5858 23.4833 33.2402 28.9025 25.4571C35.8847 15.4294 27.8949 1.83639 15.8585 2.96027ZM47.3365 2.96027C37.0699 3.97756 31.1954 15.2001 36.2496 24.2686C41.3652 33.4501 54.5836 34.0476 60.5194 25.3699C67.3498 15.381 59.3406 1.77181 47.3398 2.9635L47.3365 2.96027ZM78.8179 2.96027C67.5275 4.08091 61.8597 17.5932 69.2036 26.3937C75.5561 34.0056 87.6829 33.0174 92.6208 24.414C98.4016 14.3476 90.3634 1.81379 78.8179 2.96027ZM101.654 7.01979C94.917 13.6145 96.5705 25.4183 104.874 29.846C116.723 36.1661 129.97 24.3364 124.964 11.7704C121.231 2.40157 108.852 -0.0270182 101.654 7.01656V7.01979ZM141.777 2.96027C132.373 3.8936 126.544 13.7339 129.96 22.5247C133.968 32.8365 147.936 34.6935 154.637 25.948C162.265 15.9914 154.159 1.73305 141.777 2.9635V2.96027ZM173.259 2.96027C163.725 3.90974 157.841 14.2087 161.645 22.993C166.218 33.5535 181.2 34.5094 187.065 24.6432C193.091 14.5058 184.94 1.79441 173.259 2.96027Z" fill="white"/>
<path d="M115.037 40.2632L116.193 44.9557C117.947 43.6025 118.59 39.2265 121.354 40.4698L119.869 46.9999L118.212 47.2034L119.11 42.7079L116.3 46.9773C115.883 47.3455 115.179 47.3939 114.882 46.8223C114.637 46.3508 114.081 42.4786 113.826 42.4786L112.806 47.1937L111.691 47.2034L113.025 40.6055L115.037 40.2599V40.2632Z" fill="white"/>
<path d="M81.4556 40.461C81.5654 40.4804 81.9917 40.7 82.024 40.8389C82.1047 42.0112 82.1338 42.7507 81.152 43.4935C82.4826 44.3817 81.2101 47.2075 79.8796 47.2075H73.6951C73.8759 46.3452 74.7866 40.4578 75.3809 40.4578C77.2314 40.6709 79.6858 40.1704 81.4524 40.4578L81.4556 40.461ZM80.1056 41.3621H76.734L75.4971 46.3097H78.9818C79.6019 46.3097 80.251 44.921 79.9668 44.3138L76.621 44.0587V43.1609C76.7663 43.0091 79.3564 43.4063 80.0701 42.9542C80.4932 42.6861 80.6191 41.5171 80.1089 41.3621H80.1056Z" fill="white"/>
<path d="M61.0681 47.1733L59.618 46.9892L59.7149 44.7609C59.505 44.4282 56.0753 44.3313 55.804 44.7189L55.2227 47.1733L53.679 47.2024L55.0806 40.7336C55.2905 40.5173 57.8063 40.2104 58.2875 40.2104C59.3048 40.2104 61.1133 40.4494 62.0176 40.7724C62.4697 41.3505 62.1952 42.5842 61.9465 43.2171C61.8335 43.5046 61.4201 43.7306 61.3749 43.9696C61.32 44.2538 61.601 44.7964 61.5557 45.2808C61.4976 45.9267 61.2425 46.5597 61.0649 47.1733H61.0681ZM60.0863 41.3569H56.7147L56.1528 43.6079H59.6374C60.4706 43.6079 60.7355 41.5604 60.0863 41.3569Z" fill="white"/>
<path d="M152.954 40.4623C153.064 40.4817 153.49 40.7013 153.522 40.8402C153.564 41.6928 153.551 42.4226 153.241 43.2203C153.128 43.5077 152.718 43.7306 152.67 43.9728C152.553 44.5606 153.08 46.185 152.418 47.0763C149.685 47.8902 151.475 45.5004 151.013 44.764L147.205 44.6058L146.517 47.1797L144.974 47.2088C145.196 46.3562 146.033 40.4623 146.659 40.4623C148.578 40.6819 151.126 40.162 152.957 40.4623H152.954ZM151.378 41.3633H148.006L147.444 43.6143H150.929C151.762 43.6143 152.027 41.5668 151.378 41.3633Z" fill="white"/>
<path d="M139.075 40.2929C140.37 40.1056 143.338 39.9829 144.026 41.2941C144.791 42.757 143.729 46.0221 142.207 46.8004C140.942 47.4495 136.398 47.766 135.694 46.2514C135.432 45.6927 135.461 44.3653 135.548 43.7356C135.81 41.8398 137.205 40.5545 139.072 40.2897L139.075 40.2929ZM141.539 45.7928C142.149 45.1695 142.899 42.2984 142.169 41.575C141.749 41.1584 138.787 41.2327 138.235 41.7009C137.463 42.3565 136.711 44.9854 137.447 45.8477C138.074 46.5775 140.867 46.4742 141.536 45.7928H141.539Z" fill="white"/>
<path d="M127.773 44.2727C127.66 44.2501 127.162 43.9272 127.098 43.8238C126.161 40.2229 130.091 39.9968 132.691 40.252C133.608 40.3424 135.01 40.4425 134.632 41.5728C134.403 41.8118 128.357 40.3456 128.641 42.5934C128.661 42.7419 129.077 43.1488 129.123 43.1488H133.169C134.377 43.1488 134.529 46.4203 132.116 47.0436C131.244 47.2697 126.368 47.4764 126.096 46.6238C125.673 45.3029 128.725 46.275 129.371 46.275C129.717 46.275 131.028 46.1135 131.322 46.0231C132.265 45.7357 132.375 44.2727 131.822 44.2727C130.757 44.2727 128.67 44.46 127.776 44.2727H127.773Z" fill="white"/>
<path d="M169.932 41.3553H164.871L164.309 43.1541H169.031V44.0551H164.083L163.634 46.3061H168.805V47.2071H161.835C162.213 46.0348 162.656 41.1679 163.421 40.5834C163.996 40.141 168.727 40.0796 169.593 40.2379C170.4 40.3832 170.067 40.7869 169.932 41.3617V41.3553Z" fill="white"/>
<path d="M111.251 40.242V41.3659H105.854L105.628 43.1647H110.35L109.972 44.0722L105.435 44.0916L104.953 46.3103H110.124L109.898 47.2113H103.151C103.51 45.5545 103.671 42.5414 104.33 41.0817C104.456 40.8007 105.07 40.2388 105.286 40.2388H111.245L111.251 40.242Z" fill="white"/>
<path d="M32.0362 40.5258C32.8274 41.162 32.9631 46.0192 33.4443 47.2109L31.6777 47.1819L31.4194 45.6381C30.4957 45.7867 28.3901 45.3346 27.6925 45.8448C27.0305 46.326 27.3115 47.6824 25.574 47.2109C26.7947 45.6511 27.9929 42.2213 29.3008 40.9328C29.9306 40.3127 31.3225 39.9542 32.033 40.5258H32.0362ZM31.1966 44.7371C31.0448 44.4238 30.8801 41.0167 30.0759 41.5915L28.2738 44.7371H31.1966Z" fill="white"/>
<path d="M89.6547 47.1967L87.8656 47.1838L87.491 45.6078L84.1807 45.6562L83.3216 47.158C83.0084 47.1773 81.8296 47.4454 82.0105 46.8608C83.3572 45.4495 85.4628 38.7063 88.1691 40.4696C89.1186 41.0865 89.3964 45.9081 89.6547 47.1935V47.1967ZM86.9548 41.5773C86.5479 41.4966 86.3962 41.7776 86.183 42.0392C86.0054 42.2588 84.5941 44.6228 84.7071 44.7229H87.4038L86.9516 41.5773H86.9548Z" fill="white"/>
<path d="M52.5473 47.1946H50.7485L50.3738 45.6121L47.0733 45.6573L46.2142 47.159C45.901 47.1784 44.7222 47.4465 44.903 46.8619C46.2853 45.4442 48.3522 38.7042 51.0617 40.4707C52.0112 41.0876 52.289 45.9092 52.5473 47.1946ZM49.8442 41.5752C49.4373 41.4945 49.2855 41.7755 49.0724 42.037C48.8947 42.2566 47.4834 44.6206 47.5965 44.7207H50.2931L49.841 41.5752H49.8442Z" fill="white"/>
<path d="M69.1968 47.2044L67.4206 47.1818L67.0427 45.6187L63.726 45.6704C63.0801 45.89 62.9089 47.8826 61.5493 47.0914C62.6538 45.4573 65.1276 38.5429 67.8372 40.5839C68.5154 41.0942 68.9255 46.0709 69.2 47.2077L69.1968 47.2044ZM66.4969 41.5818C66.0125 41.1426 64.0942 44.5917 64.2524 44.7306H66.9491L66.4969 41.5818Z" fill="white"/>
<path d="M39.743 44.5075C40.1854 42.8185 42.0876 44.0876 43.2438 43.3965C43.8994 43.0025 44.0608 41.8367 43.4537 41.3587H39.969L38.7386 46.9877L37.0496 47.2074C37.6406 45.5151 37.6599 42.9444 38.2832 41.3587C38.4124 41.0261 38.6385 40.6159 39.0034 40.5061C39.5976 40.3285 43.5635 40.3672 44.3612 40.4577C47.0191 40.7612 44.8553 44.5107 43.909 44.5107H39.7494L39.743 44.5075Z" fill="white"/>
<path d="M162.283 40.4632L162.183 41.1511L159.144 41.3739C158.943 41.5677 158.53 46.0373 158.026 46.835C157.768 47.2452 156.873 47.2193 156.434 47.2097L157.558 41.361H154.635L154.861 40.46H162.283V40.4632Z" fill="white"/>
<path d="M103.371 40.4632V41.361L100.471 41.3836C100.067 42.3977 99.6928 46.7026 98.879 47.0999C98.6045 47.2323 97.5129 47.3292 97.5226 47.0934L98.6497 41.361H95.953C95.8594 41.1091 96.0499 40.46 96.2889 40.46H103.371V40.4632Z" fill="white"/>
<path d="M72.117 47.1967L70.3311 47.0998C71.0286 45.7531 71.1094 41.6161 71.8845 40.6085C72.0879 40.3469 72.779 40.2888 73.1149 40.25L73.4346 40.7474L72.117 47.1999V47.1967Z" fill="white"/>
<path d="M74.2917 37.5576L75.0442 38.1034L72.6866 39.786C71.7339 39.0012 73.8944 38.2584 74.2917 37.5576Z" fill="white"/>
<path d="M50.302 10.3213L48.277 20.8947H57.2713L56.5963 24.4924H40.1807L42.7191 12.0717C42.774 11.555 43.6427 10.3213 44.1174 10.3213H50.302Z" fill="white"/>
<path d="M121.819 10.0981L121.144 13.9219H114.85L112.993 22.9743C112.984 23.4361 111.911 24.4954 111.588 24.4954H105.404L107.652 13.9219H101.58L102.255 10.0981H121.816H121.819Z" fill="white"/>
<path d="M164.088 24.4885C164.802 20.8359 165.286 17.0638 166.223 13.4629C166.717 11.5672 166.617 10.2948 168.916 10.0816C172.149 9.78128 177.784 9.86848 181.078 10.0816C184.909 10.3303 185.984 11.283 185.351 15.2779C184.227 22.3699 177.209 20.3805 171.984 20.6873L170.951 24.4885H164.091H164.088ZM172.859 16.841H177.019C177.791 16.841 178.656 14.6481 177.975 13.9699C177.568 13.5662 173.67 13.534 173.412 13.9054L172.859 16.8377V16.841Z" fill="white"/>
<path d="M153.973 9.86816L153.288 13.6822H142.205L141.83 15.2679H151.725L151.05 19.0884H141.271C140.47 19.1789 140.732 20.0605 140.709 20.6645H151.728L151.054 24.4882H132.39C133.456 20.4125 133.782 15.5166 135.103 11.5701C135.313 10.9436 135.749 9.86816 136.55 9.86816H153.976H153.973Z" fill="white"/>
<path d="M13.8821 7.16846C14.1502 5.07574 13.9919 5.03376 16.4593 4.91103C19.1882 4.77539 21.9624 5.5957 24.2295 7.05544C20.7933 7.30734 17.328 7.1071 13.8821 7.16846C13.7885 7.90156 13.74 8.67664 13.6561 9.41943C18.0224 9.43557 22.3984 9.40973 26.7647 9.41619L28.0468 11.6672C23.1799 11.693 18.3001 11.6349 13.4332 11.6672C13.3719 12.4229 13.233 13.1592 13.2072 13.9149L28.9575 14.0183L29.4 16.3887H12.9843L12.7583 18.6397H29.3967L28.8348 20.8907H12.3061C12.4838 21.7013 12.1705 22.4505 12.0801 23.1416C16.6111 23.1772 23.2607 22.5765 27.4881 23.1416C27.74 23.1739 27.9467 23.0577 27.8175 23.4743C27.656 23.9942 26.4902 25.4992 25.9056 25.609C21.2228 25.6348 16.5368 25.5928 11.8572 25.6155C11.7991 26.2904 11.6279 27.298 11.6312 27.8664C15.442 28.2314 19.5015 27.5015 23.3252 27.9794C19.7405 30.0108 15.4872 30.0657 11.77 28.3347C11.5472 28.2378 11.6312 28.0505 11.6312 27.8664C10.2683 27.7372 9.09599 26.6521 8.25954 25.6187C9.4577 25.6122 10.6591 25.6187 11.8572 25.6187C11.925 24.8081 11.98 23.949 12.0833 23.1449C10.1876 23.1287 8.28216 23.1481 6.38643 23.1546L5.56291 20.8939H12.1963C12.8132 20.3578 12.4515 19.3857 12.5322 18.6429H4.88794V16.3919H12.6452L13.2072 14.141H5.33684C5.50154 13.5726 5.85356 11.8836 6.38643 11.7027C7.28423 11.3991 12.051 11.6768 13.4332 11.6672C13.4946 10.9082 13.5753 10.1719 13.6593 9.41619C11.7184 9.40973 9.74189 9.51309 7.81387 9.3064C9.69022 6.70018 11.0434 7.21691 13.8854 7.16846H13.8821Z" fill="white"/>
<path d="M78.8223 9.93455C82.8333 9.59222 90.6843 9.06904 90.8005 14.7013C90.9814 23.421 83.9701 25.165 76.7199 24.7225C70.4191 24.3382 68.3974 21.8773 70.3835 15.6669C71.6753 11.6268 74.8435 10.2736 78.819 9.93455H78.8223ZM80.1593 13.5226C76.9911 14.0361 75.8285 20.2626 77.9018 20.8471C78.8933 21.1248 80.8342 21.0732 81.732 20.4951C82.8204 19.7975 83.9669 15.5991 83.3404 14.5076C82.7978 13.5613 81.1637 13.3611 80.1593 13.5258V13.5226Z" fill="white"/>
</svg>
